<svg blocklyprop="blocklypropproject" xmlns="http://www.w3.org/2000/svg" xmlns:html="http://www.w3.org/1999/xhtml" xmlns:xlink="http://www.w3.org/1999/xlink" version="1.1" class="blocklySvg"><style>.blocklySvg { background-color: #fff; overflow: auto; width:1155px; height:485px;} .blocklyWidgetDiv {display: none; position: absolute; z-index: 999;} .blocklyPathLight { fill: none; stroke-linecap: round; stroke-width: 2;} .blocklyDisabled>.blocklyPath { fill-opacity: .5; stroke-opacity: .5;} .blocklyDisabled>.blocklyPathLight, .blocklyDisabled>.blocklyPathDark {display: none;} .blocklyText {cursor: default; fill: #fff; font-family: sans-serif; font-size: 11pt;} .blocklyNonEditableText>text { pointer-events: none;} .blocklyNonEditableText>rect, .blocklyEditableText>rect {fill: #fff; fill-opacity: .6;} .blocklyNonEditableText>text, .blocklyEditableText>text {fill: #000;} .blocklyBubbleText {fill: #000;} .blocklySvg text {user-select: none; -moz-user-select: none; -webkit-user-select: none; cursor: inherit;} .blocklyHidden {display: none;} .blocklyFieldDropdown:not(.blocklyHidden) {display: block;} .bkginfo {cursor: default; fill: rgba(0, 0, 0, 0.3); font-family: sans-serif; font-size: 10pt;}</style><g class="blocklyBlockCanvas" transform="translate(1083.1647033691406,537.5) scale(1)"><g data-id="GIh~8gz(f)Wv6_~^/zM]" class="blocklyDraggable blocklySelected" transform="translate(-594,-336)"><path class="blocklyPathDark" transform="translate(1,1)" fill="#7a1e3d" d="m 0,8 A 8,8 0 0,1 8,0 H 15 l 6,4 3,0 6,-4 H 40 H 321.037841796875 v 25 H 29.5 l -6,4 -3,0 -6,-4 H 0 z
"></path><path class="blocklyPath" stroke="none" fill="#99264c" d="m 0,8 A 8,8 0 0,1 8,0 H 15 l 6,4 3,0 6,-4 H 40 H 321.037841796875 v 25 H 29.5 l -6,4 -3,0 -6,-4 H 0 z
"></path><path class="blocklyPathLight" stroke="#b86782" d="m 0.5,7.5 A 7.5,7.5 0 0,1 8,0.5 H 15 l 6,4 3,0 6,-4 H 39.5 M 39.5,0.5 H 320.537841796875 M 0.5,24.5 V 8
"></path><g data-id=")Z`t5alT=U`kB0(n0SBa" class="blocklyDraggable" transform="translate(0,26)"><path class="blocklyPathDark" transform="translate(1,1)" fill="#7a1e3d" d="m 0,0 H 15 l 6,4 3,0 6,-4 H 262.0399932861328 v 25 H 29.5 l -6,4 -3,0 -6,-4 H 0 z
"></path><path class="blocklyPath" stroke="none" fill="#99264c" d="m 0,0 H 15 l 6,4 3,0 6,-4 H 262.0399932861328 v 25 H 29.5 l -6,4 -3,0 -6,-4 H 0 z
"></path><path class="blocklyPathLight" stroke="#b86782" d="m 0.5,0.5 H 15 l 6,4 3,0 6,-4 H 261.5399932861328 M 261.5399932861328,0.5 M 0.5,24.5 V 0.5
"></path><g data-id="fB7U{1Gj[iAi8N)$%`:G" class="blocklyDraggable" transform="translate(0,26)"><path class="blocklyPathDark" transform="translate(1,1)" fill="#7a1e3d" d="m 0,0 H 15 l 6,4 3,0 6,-4 H 40 H 328.95909118652344 v 36 H 29.5 l -6,4 -3,0 -6,-4 H 0 z
M 318.95909118652344,5 h -157.71218872070312 v 5 c 0,10 -8,-8 -8,7.5 s 8,-2.5 8,7.5 v 7 h 157.71218872070312 z"></path><path class="blocklyPath" stroke="none" fill="#99264c" d="m 0,0 H 15 l 6,4 3,0 6,-4 H 40 H 328.95909118652344 v 36 H 29.5 l -6,4 -3,0 -6,-4 H 0 z
M 318.95909118652344,5 h -157.71218872070312 v 5 c 0,10 -8,-8 -8,7.5 s 8,-2.5 8,7.5 v 7 h 157.71218872070312 z"></path><path class="blocklyPathLight" stroke="#b86782" d="m 0.5,0.5 H 15 l 6,4 3,0 6,-4 H 39.5 M 39.5,0.5 H 328.45909118652344 M 0.5,35.5 V 0.5
M 319.45909118652344,5.5 v 27 h -157.71218872070312 M 156.14690246582032,24.3 l 3.68,-2.1"></path><g data-id="FwKf5fYKS!`b+0IU-HE{" class="blocklyDraggable" transform="translate(162.2469024658203,6)"><path class="blocklyPathDark" transform="translate(1,1)" fill="#1e547a" d="m 0,0 H 155.71218872070312 v 25 H 0 V 20 c 0,-10 -8,8 -8,-7.5 s 8,2.5 8,-7.5 z
"></path><path class="blocklyPath" stroke="none" fill="#266999" d="m 0,0 H 155.71218872070312 v 25 H 0 V 20 c 0,-10 -8,8 -8,-7.5 s 8,2.5 8,-7.5 z
"></path><path class="blocklyPathLight" stroke="#6796b8" d="m 0.5,0.5 H 155.21218872070312 M 155.21218872070312,0.5 M 0.5,24.5 V 18.5 m -7.36,-0.5 q -1.52,-5.5 0,-11 m 7.36,1 V 0.5 H 1
"></path><g transform="translate(10,5)"><text class="blocklyText" y="12.5">“</text></g><g class="blocklyEditableText" transform="translate(24.881881713867188,5)" style="cursor: text;"><rect rx="4" ry="4" x="-5" y="0" height="16" width="115.94842529296875"></rect><text class="blocklyText" y="12.5">Bonjour Quentin</text></g><g transform="translate(140.83030700683594,5)"><text class="blocklyText" y="12.5">”</text></g></g><g data-id="oIk)w-@F[aLl.X~mWyi*" class="blocklyDraggable" transform="translate(0,37)"><path class="blocklyPathDark" transform="translate(1,1)" fill="#7a1e3d" d="m 0,0 H 15 l 6,4 3,0 6,-4 H 429.67059326171875 v 25 H 29.5 l -6,4 -3,0 -6,-4 H 8 a 8,8 0 0,1 -8,-8 z
"></path><path class="blocklyPath" stroke="none" fill="#99264c" d="m 0,0 H 15 l 6,4 3,0 6,-4 H 429.67059326171875 v 25 H 29.5 l -6,4 -3,0 -6,-4 H 8 a 8,8 0 0,1 -8,-8 z
"></path><path class="blocklyPathLight" stroke="#b86782" d="m 0.5,0.5 H 15 l 6,4 3,0 6,-4 H 429.17059326171875 M 429.17059326171875,0.5 M 2.6966991411008934,22.303300858899107 A 7.5,7.5 0 0,1 0.5,17 V 0.5
"></path><g transform="translate(10,5)"><text class="blocklyText" y="12.5">Serial LCD play note</text></g><g class="blocklyEditableText" transform="translate(154.4523468017578,5)" style="cursor: default;"><rect rx="4" ry="4" x="-5" y="0" height="16" width="33.45741271972656"></rect><text class="blocklyText" y="12.5" text-anchor="start" x="0">C<tspan style="fill: rgb(153, 38, 76);"> ▾</tspan></text><image y="5" style="display: none;"></image></g><g transform="translate(187.90975952148438,5)"><text class="blocklyText" y="12.5">octave</text></g><g class="blocklyEditableText" transform="translate(241.102294921875,5)" style="cursor: default;"><rect rx="4" ry="4" x="-5" y="0" height="16" width="44.058685302734375"></rect><text class="blocklyText" y="12.5" text-anchor="start" x="0">3rd<tspan style="fill: rgb(153, 38, 76);"> ▾</tspan></text><image y="5" style="display: none;"></image></g><g transform="translate(285.1609802246094,5)"><text class="blocklyText" y="12.5">length</text></g><g class="blocklyEditableText" transform="translate(335.10369873046875,5)" style="cursor: default;"><rect rx="4" ry="4" x="-5" y="0" height="16" width="94.56689453125"></rect><text class="blocklyText" y="12.5" text-anchor="start" x="0">whole (2 s)<tspan style="fill: rgb(153, 38, 76);"> ▾</tspan></text><image y="5" style="display: none;"></image></g></g><g transform="translate(10,10)"><text class="blocklyText" y="12.5">Serial LCD print text </text></g></g><g transform="translate(10,5)"><text class="blocklyText" y="12.5">Serial LCD command</text></g><g class="blocklyEditableText" transform="translate(159.31993103027344,5)" style="cursor: default;"><rect rx="4" ry="4" x="-5" y="0" height="16" width="102.72006225585938"></rect><text class="blocklyText" y="12.5" text-anchor="start" x="0">clear screen<tspan style="fill: rgb(153, 38, 76);"> ▾</tspan></text><image y="5" style="display: none;"></image></g></g><g transform="translate(10,5)"><text class="blocklyText" y="12.5">Serial LCD initialize PIN</text></g><g class="blocklyEditableText" transform="translate(175.61195373535156,5)" style="cursor: default;"><rect rx="4" ry="4" x="-5" y="0" height="16" width="39.17680358886719"></rect><text class="blocklyText" y="12.5" text-anchor="start" x="0">12<tspan style="fill: rgb(153, 38, 76);"> ▾</tspan></text><image y="5" style="display: none;"></image></g><g transform="translate(214.78875732421875,5)"><text class="blocklyText" y="12.5">baud</text></g><g class="blocklyEditableText" transform="translate(257.4014892578125,5)" style="cursor: default;"><rect rx="4" ry="4" x="-5" y="0" height="16" width="63.6363525390625"></rect><text class="blocklyText" y="12.5" text-anchor="start" x="0">19200<tspan style="fill: rgb(153, 38, 76);"> ▾</tspan></text><image y="5" style="display: none;"></image></g></g></g><rect x="100%" y="100%" rx="7" ry="7" width="218" height="84" style="fill:rgba(255,255,255,0.4);" transform="translate(-232,-100)" /><text class="bkginfo" x="100%" y="100%" transform="translate(-225,-83)" style="font-weight:bold;">Parallax BlocklyProp Project</text><text class="bkginfo" x="100%" y="100%" transform="translate(-225,-68)">User: offline</text><text class="bkginfo" x="100%" y="100%" transform="translate(-225,-53)">Title: test</text><text class="bkginfo" x="100%" y="100%" transform="translate(-225,-38)">Project ID: 0</text><text class="bkginfo" x="100%" y="100%" transform="translate(-225,-23)">Device: other</text><text class="bkginfo" x="100%" y="100%" transform="translate(-225,-8)">Description: </text><text class="bkginfo" x="100%" y="100%" transform="translate(-225,13)" data-createdon="Fri Apr 03 2020 19:14:30 GMT+0200 (heure d’été d’Europe centrale)" data-lastmodified="Wed Apr 15 2020 14:11:57 GMT+0200 (heure d’été d’Europe centrale)"></text>blockly/xml"><block type="debug_lcd_init" id="GIh~8gz(f)Wv6_~^/zM]" x="-594" y="-336"><field name="PIN">12</field><field name="BAUD">19200</field><next><block type="debug_lcd_action" id=")Z`t5alT=U`kB0(n0SBa"><field name="ACTION">12</field><next><block type="debug_lcd_print" id="fB7U{1Gj[iAi8N)$%`:G"><value name="MESSAGE"><block type="string_type_block" id="FwKf5fYKS!`b+0IU-HE{"><field name="TEXT">Bonjour Quentin</field></block></value><next><block type="debug_lcd_music_note" id="oIk)w-@F[aLl.X~mWyi*"><field name="NOTE">223</field><field name="OCTAVE">215</field><field name="LENGTH">214</field></block></next></block></next></block></next></block><ckm>000000000000</ckm></svg>